# xmcd
#
# Track frame offsets:
#	150
#	13157
#	25577
#	38680
#	53925
#	66230
#	78285
#	89955
#	101837
#	115167
#	128112
#	141990
#	154697
#	168490
#	182550
#	199602
#	211210
#	225552
#
# Disc length: 3191 seconds
#
# Revision: 0
# Processed by: cddbd v1.5.1PL2 Copyright (c) Steve Scherf et al.
# Submitted via: audiograbber 1.83.01
#
DISCID=f40c7512
DTITLE=циыяцос такиоуягс  - есу еисаи аяистойяатисса
DYEAR=1996
DGENRE=каийа
TTITLE0=есу еисаи аяистойяатисса 
TTITLE1=стокиди еисаи ломг соу 
TTITLE2=о дийастгс 
TTITLE3=лес' тгс пемтекгс та боума 
TTITLE4=суяла памы суяла йаты 
TTITLE5=бакте лоу дуо йамабоуяиес 
TTITLE6=тяеккг  (гсоума нупокгтг) 
TTITLE7=йяужа лоу ежуцес 
TTITLE8=тоу цуяислоу о дяолос 
TTITLE9=циа емам амтяа лпесакг 
TTITLE10=еваса том еяыта лоу 
TTITLE11=лас бягйе евхес то деикимо 
TTITLE12=евы аяяысто луако 
TTITLE13=епаьес ма л' ацапас 
TTITLE14=ока еды ха леимоуме 
TTITLE15=жтаиы йаи та пкгяымы 
TTITLE16=то паяалухи соу йуяа лоу 
TTITLE17=лес' тгс покгс то  валал 
EXTD=
EXTT0=
EXTT1=
EXTT2=
EXTT3=
EXTT4=
EXTT5=
EXTT6=
EXTT7=
EXTT8=
EXTT9=
EXTT10=
EXTT11=
EXTT12=
EXTT13=
EXTT14=
EXTT15=
EXTT16=
EXTT17=
PLAYORDER=
